<svg id="Calque_1" data-name="Calque 1" xmlns="http://www.w3.org/2000/svg" viewBox="0 0 609.9 219.4"><defs><style>.cls-1{fill:#897c82;}.cls-2{fill:#e95f36;}.cls-3{font-size:60px;fill:#eb6847;font-family:Geneva, Geneva;letter-spacing:0.12em;}</style></defs><title>logo_beta</title><g id="Calque_2" data-name="Calque 2"><g id="Calque_1-2" data-name="Calque 1-2"><path class="cls-1" d="M159.3,0a55.4,55.4,0,0,0-55.4,55.4h0a20.9,20.9,0,0,0,.1,2.5,55.4,55.4,0,0,1,110.8,0c0-.8.1-1.7.1-2.5A55.4,55.4,0,0,0,159.5,0Z" transform="translate(-0.1 0)"/><path class="cls-2" d="M177.7,70.2l-15.8-9.6a2.7,2.7,0,0,0,.1-.8,2.8,2.8,0,0,0-2.8-2.8h-.4l-9.7-27.9a.6.6,0,0,0-1.2.2v.2l9.8,27.9a2.7,2.7,0,1,0,3.5,4.2L177,71.2a.6.6,0,1,0,.8-.9h-.1Z" transform="translate(-0.1 0)"/><path class="cls-1" d="M159.3,96.2a36.9,36.9,0,0,1-36.8-34.5,19.3,19.3,0,0,0-.1,2.4,37,37,0,1,0,73.9,0,19.3,19.3,0,0,0-.1-2.4A36.9,36.9,0,0,1,159.3,96.2Z" transform="translate(-0.1 0)"/><path class="cls-1" d="M55.6,102.2A46.4,46.4,0,1,1,88.3,22.9l6.3-6.3a55.4,55.4,0,1,0,0,78.4l-6.3-6.3A46.2,46.2,0,0,1,55.6,102.2Z" transform="translate(-0.1 0)"/><polygon class="cls-1" points="237.6 105.4 237.6 2.5 228.4 2.5 228.4 113.4 283.9 113.4 283.9 105.4 237.6 105.4"/><path class="cls-1" d="M464.1.4A57.6,57.6,0,1,0,521.7,58,57.6,57.6,0,0,0,464.1.4Zm0,105.5a48,48,0,1,1,48-48h0A48,48,0,0,1,464.1,105.9Z" transform="translate(-0.1 0)"/><polygon class="cls-1" points="372.9 10.3 372.9 2.3 317.4 2.3 317.4 2.6 317.4 10.3 317.4 54.1 317.4 62 317.4 113.5 372.9 113.5 372.9 105.6 326.6 105.6 326.6 62 372.9 62 372.9 54.1 326.6 54.1 326.6 10.3 372.9 10.3"/></g></g><text class="cls-3" transform="translate(344.9 181.1)">BETA</text></svg>